# xmcd
#
# Track frame offsets:
# 150
# 18672
# 40975
# 65083
# 88547
# 107477
# 135305
# 154085
# 182085
#
# Disc length: 2654 seconds
#
#
# Revision: 4
# Processed by: cddbd v1.5.2PL0 Copyright (c) Steve Scherf et al.
# Submitted via: FreeRIP 2.945 
#
DISCID=700a5c09
DTITLE=Robben Ford - A Day in Nashville
DYEAR=2014
DGENRE=Blues
TTITLE0=Green Grass, Rainwater
TTITLE1=Midnight Comes Too Soon
TTITLE2=Ain't Drinkin' Beer No More
TTITLE3=Top Down Blues
TTITLE4=Different People
TTITLE5=Cut You Loose
TTITLE6=Poor Kelly Blues
TTITLE7=Thump and Bump
TTITLE8=Just Another Country Road
EXTD=
EXTT0=
EXTT1=
EXTT2=
EXTT3=
EXTT4=
EXTT5=
EXTT6=
EXTT7=
EXTT8=
PLAYORDER=
